<svg version="1.1" id="Layer_1" xmlns:x="ns_extend;" xmlns:i="ns_ai;" xmlns:graph="ns_graphs;" xmlns="http://www.w3.org/2000/svg" xmlns:xlink="http://www.w3.org/1999/xlink" x="0px" y="0px" viewBox="0 0 35.7 42.7" style="enable-background:new 0 0 35.7 42.7;" xml:space="preserve">
 <style type="text/css">
  .st0{fill:#E2401B;}
 </style>
 <metadata>
  <sfw xmlns="ns_sfw;">
   <slices>
   </slices>
   <sliceSourceBounds bottomLeftOrigin="true" height="42.7" width="35.7" x="-92.1" y="81">
   </sliceSourceBounds>
  </sfw>
 </metadata>
 <g>
  <path class="st0" d="M25.4,28.1c-0.6-1.1-1.1-2.1-1.6-3.3c1.7-0.8,3.3-1.9,4.6-3.2c2-2,3-4.8,3-8.4c0-4.2-1.4-7.4-4.1-9.7
		c-2.7-2.3-6.2-3.6-9.8-3.5H0v39.9h8.5V25.6h3.2l2,0c0.7,1.8,2.4,5.7,3.3,7.8L25.4,28.1z M8.5,8h7.8c3.9,0,5.9,1.6,5.9,4.8
		c0,3.4-2.2,5.1-6.6,5.1H8.5V8z">
  </path>
  <path class="st0" d="M34.2,37.1L32,35.5l-9.2,6l3.2,1.3l5.6,0l4.1-2.9L34.2,37.1z">
  </path>
  <path class="st0" d="M26.8,30.4l-8.6,5.4l2.4,3.8l9.1-5.8L26.8,30.4z">
  </path>
 </g>
</svg>